<?xml version="1.0"?><svg width="640" height="480" xmlns="http://www.w3.org/2000/svg">
 <title>Train silhouette</title>
 <g>
  <title>Layer 1</title>
  <g id="g662">
   <g id="g634"/>
   <g id="svg_1">
    <g id="svg_2">
     <path d="m205.737793,397.720337a42.315338,47.239361 0 1 0-84.630661,0a42.315411,47.239449 0 1 084.630325,0.000549l-42.314972,-0.000549l42.315308,0z" id="path644" stroke-width="0" stroke="black" fill-rule="evenodd" fill="#41416b"/>
     <path d="m309.602783,397.720337a42.315338,47.239361 0 1 0-84.630707,0a42.315411,47.239449 0 1 084.63028,0.000549l-42.314941,-0.000549l42.315369,0z" id="path645" stroke-width="0" stroke="black" fill-rule="evenodd" fill="#41416b"/>
     <path d="m413.467621,397.720337a42.315338,47.239361 0 1 0-84.630737,0a42.315411,47.239449 0 1 084.630402,0.000549l-42.315094,-0.000549l42.31543,0z" id="path646" stroke-width="0" stroke="black" fill-rule="evenodd" fill="#41416b"/>
     <path d="m477.902283,410.446716a26.44709,29.524599 0 1 0-52.894165,0a26.44713,29.524651 0 1 052.893921,0.000366l-26.446777,-0.000366l26.447021,0z" id="path647" stroke-width="0" stroke="black" fill-rule="evenodd" fill="#41416b"/>
     <path d="m146.571518,303.071289l-40.851791,-0.030762l0,77.501831l437.579102,0l0,-41.903931l-20.195862,0.032532l0,-99.846741l-25.72583,0l-0.195313,-17.714844l7.29541,-8.857422l-0.037476,-6.710083l-25.515564,0l-25.876099,0l-0.037537,6.039124l7.055115,8.588959l0.405701,18.654266l-113.362061,0l-0.188141,-13.957184c0.146179,-7.276001 -6.083038,-19.581482 -12.567261,-19.265747l-13.106445,-0.059509l-12.56723,-0.208893c-6.578918,-0.025574 -13.242859,9.153778 -13.106384,18.997314l-0.188232,14.494019l-82.979401,0l-0.032684,-33.403351l-87.247055,-0.189819l-0.032562,33.59317l21.521027,0c4.489746,0.082825 8.498611,5.802429 8.420181,10.716675l-0.23526,43.711243c-0.098099,5.151855 -3.802567,10.035278 -8.228348,9.819153z" id="path650" stroke-width="0" stroke="#000000" fill-rule="evenodd" fill="#41416b"/>
     <path d="m540.413513,410.446716a26.44709,29.524599 0 1 0-52.894165,0a26.44713,29.524651 0 1 052.893921,0.000366l-26.446716,-0.000366l26.44696,0z" id="path648" stroke-width="0" stroke="black" fill-rule="evenodd" fill="#41416b"/>
     <path d="m413.467621,397.720337a42.315338,47.239361 0 1 0-84.630737,0a42.315411,47.239449 0 1 084.630402,0.000549l-42.315094,-0.000549l42.31543,0z" id="path656" stroke-width="0" stroke="black" fill-rule="evenodd" fill="#41416b"/>
     <path d="m267.284485,22.46875c-39.138458,0 -70.897766,27.494049 -70.897766,61.37616c0,33.882111 31.759308,61.37619 70.897766,61.37619c9.895203,0 19.289398,-1.790924 27.847778,-4.965118c12.463745,11.947968 30.327881,19.561371 50.374725,19.561371c4.997864,0 9.888611,-0.490265 14.580322,-1.375885c9.714172,8.643372 23.262238,14.057922 38.282043,14.057922c14.754517,0 28.12558,-5.188843 37.808014,-13.570923c4.841248,-4.19104 20.896484,-1.860413 25.395813,8.532959c0.918884,2.263611 -0.223572,39.145447 1.947144,39.462036c2.170898,0.316559 24.009155,2.50296 25.72052,0.889496c1.711243,-1.613495 -2.723511,-30.219727 -5.244995,-42.749115c-4.799988,-24.195374 -27.951355,-54.706085 -35.545105,-62.677765c-7.593872,-7.971558 -26.971924,-19.217621 -39.094299,-21.412567c-9.470947,-22.681122 -34.386444,-39.003143 -63.849457,-39.003143c-8.129456,0 -15.849854,1.443207 -23.079773,3.708893c-12.996613,-14.058929 -32.740326,-23.21051 -55.142731,-23.21051z" id="path661" stroke-width="0" stroke="black" fill-rule="evenodd" fill="#41416b"/>
    </g>
   </g>
  </g>
 </g>
</svg>